# xmcd CD database file
#
# Track frame offsets:
#	150
#	15520
#	34547
#	48131
#	65979
#	84751
#	101643
#	118689
#	132154
#	148032
#	168371
#	185486
#	194235
#
# Disc length: 2845 seconds
#
# Revision: 0
# Processed by: cddbd v1.5.2PL0 Copyright (c) Steve Scherf et al.
# Submitted via: CDex 1.99.1
#
DISCID=b20b1b0d
DTITLE=Brian Butler - Butler's Blues
DYEAR=2018
DGENRE=Blues
TTITLE0=Johnny Young
TTITLE1=Mississippi Woman
TTITLE2=Snow River
TTITLE3=Lead A Horse To Water
TTITLE4=Taking The Train
TTITLE5=Atomic Bomb
TTITLE6=The Race Is Over
TTITLE7=Oxbow Blues
TTITLE8=The News About Billy
TTITLE9=A Nickel And A Nail
TTITLE10=River Roads
TTITLE11=Yonder Comes The Blues
TTITLE12=Place Pigalle
EXTD=YEAR: 2018
EXTT0=
EXTT1=
EXTT2=
EXTT3=
EXTT4=
EXTT5=
EXTT6=
EXTT7=
EXTT8=
EXTT9=
EXTT10=
EXTT11=
EXTT12=
PLAYORDER=
